<svg version="1.1" viewBox="0.0 0.0 960.0 720.0" fill="none" stroke="none" stroke-linecap="square" stroke-miterlimit="10" xmlns:xlink="http://www.w3.org/1999/xlink" xmlns="http://www.w3.org/2000/svg"><clipPath id="g2ae8a89ea3_0_75.0"><path d="m0 0l960.0 0l0 720.0l-960.0 0l0 -720.0z" clip-rule="nonzero"/></clipPath><g clip-path="url(#g2ae8a89ea3_0_75.0)"><path fill="#ffffff" d="m0 0l960.0 0l0 720.0l-960.0 0z" fill-rule="evenodd"/><path fill="#000000" fill-opacity="0.0" d="m52.85827 355.6272c11.297279 -11.204559 44.633644 -78.061615 67.78368 -67.227356c23.15004 10.8342285 47.873795 118.065125 71.11656 132.23279c23.242752 14.167694 38.337646 -24.354553 68.34 -47.226715c30.00238 -22.872162 86.11676 -98.34039 111.674164 -90.006226c25.557404 8.334137 19.353546 121.583984 41.670227 140.0112c22.31668 18.427185 63.15329 -6.020111 92.22986 -29.448029c29.076569 -23.427917 59.17221 -117.32391 82.22952 -111.11951c23.057312 6.2044067 43.243103 127.14047 56.11438 148.34592c12.871277 21.205444 17.594421 -17.59439 21.113281 -21.113281" fill-rule="evenodd"/><path stroke="#888888" stroke-width="16.0" stroke-linejoin="round" stroke-linecap="butt" d="m52.85827 355.6272c11.297279 -11.204559 44.633644 -78.061615 67.78368 -67.227356c23.15004 10.8342285 47.873795 118.065125 71.11656 132.23279c23.242752 14.167694 38.337646 -24.354553 68.34 -47.226715c30.00238 -22.872162 86.11676 -98.34039 111.674164 -90.006226c25.557404 8.334137 19.353546 121.583984 41.670227 140.0112c22.31668 18.427185 63.15329 -6.020111 92.22986 -29.448029c29.076569 -23.427917 59.17221 -117.32391 82.22952 -111.11951c23.057312 6.2044067 43.243103 127.14047 56.11438 148.34592c12.871277 21.205444 17.594421 -17.59439 21.113281 -21.113281" fill-rule="evenodd"/><path fill="#000000" fill-opacity="0.0" d="m11.141732 490.28638c17.428696 -17.285645 71.000435 -109.71393 104.57218 -103.71393c33.57173 6.0 61.00087 117.856964 96.85826 139.71393c35.85739 21.856934 81.2861 22.14215 118.2861 -8.572205c37.0 -30.714325 56.285645 -190.14258 103.7139 -175.7139c47.428253 14.428711 134.99869 227.71481 180.85562 262.2861c45.856995 34.57129 57.42871 -17.14392 94.28613 -54.858276c36.85736 -37.714355 91.28693 -180.99957 126.85828 -171.42783c35.57129 9.571747 66.712585 196.14395 86.56952 228.85825c19.856934 32.714355 27.143494 -27.143433 32.572205 -32.572144" fill-rule="evenodd"/><path stroke="#444444" stroke-width="4.0" stroke-linejoin="round" stroke-linecap="butt" d="m11.141732 490.28638c17.428696 -17.285645 71.000435 -109.71393 104.57218 -103.71393c33.57173 6.0 61.00087 117.856964 96.85826 139.71393c35.85739 21.856934 81.2861 22.14215 118.2861 -8.572205c37.0 -30.714325 56.285645 -190.14258 103.7139 -175.7139c47.428253 14.428711 134.99869 227.71481 180.85562 262.2861c45.856995 34.57129 57.42871 -17.14392 94.28613 -54.858276c36.85736 -37.714355 91.28693 -180.99957 126.85828 -171.42783c35.57129 9.571747 66.712585 196.14395 86.56952 228.85825c19.856934 32.714355 27.143494 -27.143433 32.572205 -32.572144" fill-rule="evenodd"/><path fill="#000000" fill-opacity="0.0" d="m151.71654 282.4567l147.43306 0l0 39.84253l-147.43306 0z" fill-rule="evenodd"/><path fill="#000000" d="m193.9435 298.92355q-0.34375 0.296875 -0.46875 0.671875q-0.125 0.375 -0.125 0.796875q0 0.421875 0.359375 0.78125q0.375 0.34375 0.96875 0.59375q0.59375 0.234375 1.359375 0.421875q0.765625 0.1875 1.5625 0.390625q0.796875 0.1875 1.5625 0.453125q0.765625 0.25 1.359375 0.640625q1.328125 0.828125 1.328125 2.28125q0 1.75 -1.296875 2.671875q-1.296875 0.90625 -3.59375 0.90625q-2.59375 0 -3.953125 -1.09375q-1.21875 -0.96875 -1.390625 -2.75l1.453125 0q0.078125 1.265625 1.234375 1.9375q1.015625 0.578125 2.671875 0.578125q3.46875 0 3.46875 -2.1875q0 -0.75 -0.625 -1.171875q-0.625 -0.4375 -1.578125 -0.703125q-0.9375 -0.28125 -2.03125 -0.515625q-1.078125 -0.25 -2.03125 -0.625q-0.9375 -0.390625 -1.5625 -1.015625q-0.625 -0.625 -0.625 -1.6875q0 -1.515625 1.15625 -2.46875q1.15625 -0.953125 3.484375 -0.953125q2.359375 0 3.640625 1.078125q1.171875 0.953125 1.25 2.453125l-1.4375 0q-0.1875 -1.53125 -1.96875 -2.03125q-0.640625 -0.1875 -1.578125 -0.1875q-0.9375 0 -1.59375 0.21875q-0.640625 0.203125 -1.0 0.515625zm11.161102 -2.609375l0 5.1875q0.5 -0.671875 1.234375 -1.140625q0.734375 -0.46875 1.65625 -0.46875q0.9375 0 1.609375 0.265625q0.671875 0.265625 1.171875 0.78125q1.15625 1.140625 1.15625 3.015625l0 5.421875l-1.390625 0l0 -5.390625q0 -1.28125 -0.734375 -2.046875q-0.734375 -0.765625 -1.890625 -0.765625q-1.171875 0 -1.984375 0.78125q-0.828125 0.796875 -0.828125 2.046875l0 5.375l-1.390625 0l0 -13.0625l1.390625 0zm16.434433 11.5625q-1.109375 1.65625 -3.328125 1.65625q-2.015625 0 -3.296875 -1.40625q-1.21875 -1.375 -1.21875 -3.421875q0 -2.03125 1.21875 -3.40625q1.28125 -1.40625 3.375 -1.40625q2.109375 0 3.25 1.671875l0 -1.515625l1.40625 0l0 9.328125l-1.40625 0l0 -1.5zm-3.15625 0.375q1.515625 0 2.390625 -1.046875q0.84375 -0.984375 0.84375 -2.5q0 -1.5 -0.84375 -2.484375q-0.875 -1.046875 -2.390625 -1.046875q-1.484375 0 -2.421875 1.046875q-0.875 0.984375 -0.875 2.484375q0 1.515625 0.875 2.5q0.9375 1.046875 2.421875 1.046875zm14.256714 -0.375q-1.109375 1.65625 -3.328125 1.65625q-2.015625 0 -3.296875 -1.40625q-1.21875 -1.375 -1.21875 -3.421875q0 -2.03125 1.21875 -3.40625q1.28125 -1.40625 3.375 -1.40625q2.109375 0 3.25 1.671875l0 -5.25l1.40625 0l0 13.0625l-1.40625 0l0 -1.5zm-3.15625 0.375q1.515625 0 2.390625 -1.046875q0.84375 -0.984375 0.84375 -2.5q0 -1.5 -0.84375 -2.484375q-0.875 -1.046875 -2.390625 -1.046875q-1.484375 0 -2.421875 1.046875q-0.875 0.984375 -0.875 2.484375q0 1.515625 0.875 2.5q0.9375 1.046875 2.421875 1.046875zm11.037964 -8.359375q2.078125 0 3.390625 1.40625q1.234375 1.34375 1.234375 3.40625q0 2.078125 -1.234375 3.421875q-1.3125 1.40625 -3.390625 1.40625q-2.09375 0 -3.40625 -1.40625q-1.21875 -1.34375 -1.21875 -3.421875q0 -2.0625 1.21875 -3.40625q1.3125 -1.40625 3.40625 -1.40625zm0 8.359375q1.5 0 2.390625 -1.046875q0.828125 -0.984375 0.828125 -2.5q0 -1.5 -0.828125 -2.484375q-0.890625 -1.046875 -2.390625 -1.046875q-1.515625 0 -2.390625 1.046875q-0.84375 0.984375 -0.84375 2.484375q0 1.515625 0.84375 2.5q0.875 1.046875 2.390625 1.046875zm12.28775 -6.3125l-2.328125 7.4375l-1.609375 0l-2.921875 -9.328125l1.484375 0l2.25 7.59375l2.359375 -7.59375l1.53125 0l2.375 7.59375l2.234375 -7.59375l1.5 0l-2.9375 9.328125l-1.609375 0l-2.328125 -7.4375z" fill-rule="nonzero"/><path fill="#000000" fill-opacity="0.0" d="m687.147 565.8845l147.4331 0l0 39.84253l-147.4331 0z" fill-rule="evenodd"/><path fill="#000000" d="m735.5322 580.3045q2.75 0 4.53125 1.84375q1.734375 1.796875 1.734375 4.484375q0 2.6875 -1.734375 4.46875q-1.78125 1.859375 -4.53125 1.859375q-2.765625 0 -4.53125 -1.859375q-1.734375 -1.78125 -1.734375 -4.46875q0 -2.6875 1.734375 -4.484375q1.765625 -1.84375 4.53125 -1.84375zm0 11.28125q2.203125 0 3.5625 -1.4375q1.296875 -1.375 1.296875 -3.515625q0 -2.15625 -1.296875 -3.53125q-1.359375 -1.4375 -3.5625 -1.4375q-2.203125 0 -3.5625 1.4375q-1.3125 1.375 -1.3125 3.53125q0 2.140625 1.3125 3.515625q1.359375 1.4375 3.5625 1.4375zm13.1328125 -8.265625l0 1.40625l-0.171875 0q-1.515625 0 -2.46875 1.21875q-0.890625 1.15625 -0.890625 2.75l0 4.109375l-1.390625 0l0 -9.328125l1.390625 0l0 2.296875q0.453125 -1.453125 1.9375 -2.140625q0.625 -0.3125 1.5 -0.3125l0.09375 0zm1.5145264 0.15625l1.390625 0l0 9.328125l-1.390625 0l0 -9.328125zm1.453125 -3.390625l0 1.828125l-1.515625 0l0 -1.828125l1.515625 0zm9.637024 4.890625l0 -1.5l1.40625 0l0 9.046875q0 2.015625 -1.15625 3.0625q-1.140625 1.0625 -3.078125 1.0625q-1.9375 0 -3.03125 -0.75q-1.09375 -0.75 -1.484375 -1.96875l1.546875 0q0.59375 1.453125 2.71875 1.453125q1.625 0 2.34375 -0.75q0.734375 -0.75 0.734375 -2.203125l0 -1.28125q-1.140625 1.65625 -3.328125 1.65625q-2.015625 0 -3.296875 -1.375q-1.21875 -1.34375 -1.21875 -3.359375q0 -2.015625 1.21875 -3.359375q1.28125 -1.390625 3.390625 -1.390625q2.125 0 3.234375 1.65625zm-3.15625 6.5625q0.765625 0 1.359375 -0.265625q0.609375 -0.28125 1.03125 -0.75q0.84375 -0.96875 0.84375 -2.453125q0 -1.5 -0.84375 -2.46875q-0.90625 -1.0 -2.390625 -1.0q-1.5 0 -2.421875 1.0q-0.875 0.984375 -0.875 2.46875q0 1.46875 0.875 2.453125q0.921875 1.015625 2.421875 1.015625zm6.991089 -8.0625l1.390625 0l0 9.328125l-1.390625 0l0 -9.328125zm1.453125 -3.390625l0 1.828125l-1.515625 0l0 -1.828125l1.515625 0zm3.762085 3.390625l0 1.453125q0.5 -0.671875 1.234375 -1.140625q0.734375 -0.46875 1.65625 -0.46875q0.9375 0 1.609375 0.265625q0.671875 0.265625 1.171875 0.78125q1.15625 1.140625 1.15625 3.015625l0 5.421875l-1.390625 0l0 -5.390625q0 -1.28125 -0.734375 -2.046875q-0.734375 -0.765625 -1.890625 -0.765625q-1.171875 0 -1.984375 0.78125q-0.828125 0.796875 -0.828125 2.046875l0 5.375l-1.390625 0l0 -9.328125l1.390625 0zm16.434387 7.828125q-1.109375 1.65625 -3.328125 1.65625q-2.015625 0 -3.296875 -1.40625q-1.21875 -1.375 -1.21875 -3.421875q0 -2.03125 1.21875 -3.40625q1.28125 -1.40625 3.375 -1.40625q2.109375 0 3.25 1.671875l0 -1.515625l1.40625 0l0 9.328125l-1.40625 0l0 -1.5zm-3.15625 0.375q1.515625 0 2.390625 -1.046875q0.84375 -0.984375 0.84375 -2.5q0 -1.5 -0.84375 -2.484375q-0.875 -1.046875 -2.390625 -1.046875q-1.484375 0 -2.421875 1.046875q-0.875 0.984375 -0.875 2.484375q0 1.515625 0.875 2.5q0.9375 1.046875 2.421875 1.046875zm8.381714 1.125l-1.390625 0l0 -13.0625l1.390625 0l0 13.0625z" fill-rule="nonzero"/></g></svg>