<svg version="1.1" viewBox="0.0 0.0 960.0 720.0" fill="none" stroke="none" stroke-linecap="square" stroke-miterlimit="10" xmlns:xlink="http://www.w3.org/1999/xlink" xmlns="http://www.w3.org/2000/svg"><clipPath id="g2ae8a89ea3_0_75.0"><path d="m0 0l960.0 0l0 720.0l-960.0 0l0 -720.0z" clip-rule="nonzero"/></clipPath><g clip-path="url(#g2ae8a89ea3_0_75.0)"><path fill="#ffffff" d="m0 0l960.0 0l0 720.0l-960.0 0z" fill-rule="evenodd"/><path fill="#000000" fill-opacity="0.0" d="m11.141732 490.28638c17.428696 -17.285645 71.000435 -109.71393 104.57218 -103.71393c33.57173 6.0 61.00087 117.856964 96.85826 139.71393c35.85739 21.856934 81.2861 22.14215 118.2861 -8.572205c37.0 -30.714325 56.285645 -190.14258 103.7139 -175.7139c47.428253 14.428711 134.99869 227.71481 180.85562 262.2861c45.856995 34.57129 57.42871 -17.14392 94.28613 -54.858276c36.85736 -37.714355 91.28693 -180.99957 126.85828 -171.42783c35.57129 9.571747 66.712585 196.14395 86.56952 228.85825c19.856934 32.714355 27.143494 -27.143433 32.572205 -32.572144" fill-rule="evenodd"/><path stroke="#444444" stroke-width="4.0" stroke-linejoin="round" stroke-linecap="butt" d="m11.141732 490.28638c17.428696 -17.285645 71.000435 -109.71393 104.57218 -103.71393c33.57173 6.0 61.00087 117.856964 96.85826 139.71393c35.85739 21.856934 81.2861 22.14215 118.2861 -8.572205c37.0 -30.714325 56.285645 -190.14258 103.7139 -175.7139c47.428253 14.428711 134.99869 227.71481 180.85562 262.2861c45.856995 34.57129 57.42871 -17.14392 94.28613 -54.858276c36.85736 -37.714355 91.28693 -180.99957 126.85828 -171.42783c35.57129 9.571747 66.712585 196.14395 86.56952 228.85825c19.856934 32.714355 27.143494 -27.143433 32.572205 -32.572144" fill-rule="evenodd"/></g></svg>