<svg version="1.1" viewBox="0.0 0.0 960.0 720.0" fill="none" stroke="none" stroke-linecap="square" stroke-miterlimit="10" xmlns:xlink="http://www.w3.org/1999/xlink" xmlns="http://www.w3.org/2000/svg"><clipPath id="g2ae8a89ea3_0_116.0"><path d="m0 0l960.0 0l0 720.0l-960.0 0l0 -720.0z" clip-rule="nonzero"/></clipPath><g clip-path="url(#g2ae8a89ea3_0_116.0)"><path fill="#ffffff" d="m0 0l960.0 0l0 720.0l-960.0 0z" fill-rule="evenodd"/><path fill="#000000" fill-opacity="0.0" d="m60.0 453.7382c26.285652 -31.194244 95.99956 -193.45145 157.71391 -187.16537c61.71434 6.2861023 133.57219 222.25897 212.57219 224.8819c79.0 2.6229248 183.14218 -207.28696 261.42783 -209.14435c78.285645 -1.8573914 173.57172 165.0 208.28607 198.0" fill-rule="evenodd"/><path stroke="#0097a7" stroke-width="12.0" stroke-linejoin="round" stroke-linecap="butt" d="m60.0 453.7382c26.285652 -31.194244 95.99956 -193.45145 157.71391 -187.16537c61.71434 6.2861023 133.57219 222.25897 212.57219 224.8819c79.0 2.6229248 183.14218 -207.28696 261.42783 -209.14435c78.285645 -1.8573914 173.57172 165.0 208.28607 198.0" fill-rule="evenodd"/><path fill="#000000" fill-opacity="0.0" d="m60.0 482.28265c29.428696 -28.66623 114.857834 -178.28348 176.57217 -171.99738c61.714355 6.286072 117.856964 209.61896 193.71393 209.71393c75.85693 0.09490967 183.14218 -207.28699 261.42783 -209.14438c78.285645 -1.8573914 173.57172 165.0 208.28607 198.0" fill-rule="evenodd"/><path stroke="#78909c" stroke-width="3.0" stroke-linejoin="round" stroke-linecap="butt" stroke-dasharray="12.0,9.0,3.0,9.0" d="m60.0 482.28265c29.428696 -28.66623 114.857834 -178.28348 176.57217 -171.99738c61.714355 6.286072 117.856964 209.61896 193.71393 209.71393c75.85693 0.09490967 183.14218 -207.28699 261.42783 -209.14438c78.285645 -1.8573914 173.57172 165.0 208.28607 198.0" fill-rule="evenodd"/><path fill="#000000" fill-opacity="0.0" d="m60.0 517.9968c30.285652 -30.0 114.71391 -186.09583 181.71391 -180.0c66.999985 6.0957947 145.28609 215.14612 220.28609 216.57477c75.0 1.4287109 156.71393 -206.33551 229.71393 -208.0026c73.0 -1.6671143 173.57172 165.0 208.28607 197.99997" fill-rule="evenodd"/><path stroke="#ff00ff" stroke-width="8.0" stroke-linejoin="round" stroke-linecap="butt" stroke-dasharray="32.0,24.0" d="m60.0 517.9968c30.285652 -30.0 114.71391 -186.09583 181.71391 -180.0c66.999985 6.0957947 145.28609 215.14612 220.28609 216.57477c75.0 1.4287109 156.71393 -206.33551 229.71393 -208.0026c73.0 -1.6671143 173.57172 165.0 208.28607 197.99997" fill-rule="evenodd"/><path fill="#000000" fill-opacity="0.0" d="m60.0 545.1393c26.571304 -27.999573 97.71347 -174.28348 159.42783 -167.99738c61.714355 6.286072 128.14392 199.8565 210.85828 205.71393c82.714325 5.857361 207.14218 -168.71219 285.42783 -170.56958c78.285645 -1.8573914 153.57172 132.85431 184.28607 159.42517" fill-rule="evenodd"/><path stroke="#ffab40" stroke-width="8.0" stroke-linejoin="round" stroke-linecap="butt" stroke-dasharray="8.0,24.0" d="m60.0 545.1393c26.571304 -27.999573 97.71347 -174.28348 159.42783 -167.99738c61.714355 6.286072 128.14392 199.8565 210.85828 205.71393c82.714325 5.857361 207.14218 -168.71219 285.42783 -170.56958c78.285645 -1.8573914 153.57172 132.85431 184.28607 159.42517" fill-rule="evenodd"/></g></svg>