<svg version="1.1" viewBox="0.0 0.0 960.0 720.0" fill="none" stroke="none" stroke-linecap="square" stroke-miterlimit="10" xmlns:xlink="http://www.w3.org/1999/xlink" xmlns="http://www.w3.org/2000/svg"><clipPath id="g2ae8cada19_0_126.0"><path d="m0 0l960.0 0l0 720.0l-960.0 0l0 -720.0z" clip-rule="nonzero"/></clipPath><g clip-path="url(#g2ae8cada19_0_126.0)"><path fill="#ffffff" d="m0 0l960.0 0l0 720.0l-960.0 0z" fill-rule="evenodd"/><path fill="#eeeeee" d="m530.58795 245.23885l292.78735 0l0 278.80316l-292.78735 0z" fill-rule="evenodd"/><path stroke="#595959" stroke-width="4.0" stroke-linejoin="round" stroke-linecap="butt" d="m530.58795 245.23885l292.78735 0l0 278.80316l-292.78735 0z" fill-rule="evenodd"/><path fill="#000000" fill-opacity="0.0" d="m558.4147 266.0735l0 237.13385" fill-rule="evenodd"/><path stroke="#595959" stroke-width="4.0" stroke-linejoin="round" stroke-linecap="butt" d="m558.4147 266.0735l0 237.13385" fill-rule="evenodd"/><path fill="#000000" fill-opacity="0.0" d="m558.4147 503.20734l237.13391 0" fill-rule="evenodd"/><path stroke="#595959" stroke-width="4.0" stroke-linejoin="round" stroke-linecap="butt" d="m558.4147 503.20734l237.13391 0" fill-rule="evenodd"/><path fill="#b7b7b7" d="m601.2515 369.0974l0 0c0 -3.8355408 3.109314 -6.9448547 6.9448853 -6.9448547l0 0c1.841919 0 3.6083374 0.73168945 4.9107666 2.0340881c1.3024292 1.3024292 2.0341187 3.0688782 2.0341187 4.9107666l0 0c0 3.8355713 -3.109314 6.9448853 -6.9448853 6.9448853l0 0c-3.8355713 0 -6.9448853 -3.109314 -6.9448853 -6.9448853z" fill-rule="evenodd"/><path stroke="#595959" stroke-width="2.0" stroke-linejoin="round" stroke-linecap="butt" d="m601.2515 369.0974l0 0c0 -3.8355408 3.109314 -6.9448547 6.9448853 -6.9448547l0 0c1.841919 0 3.6083374 0.73168945 4.9107666 2.0340881c1.3024292 1.3024292 2.0341187 3.0688782 2.0341187 4.9107666l0 0c0 3.8355713 -3.109314 6.9448853 -6.9448853 6.9448853l0 0c-3.8355713 0 -6.9448853 -3.109314 -6.9448853 -6.9448853z" fill-rule="evenodd"/><path fill="#b7b7b7" d="m660.4866 328.91864l0 0c0 -11.758881 9.532471 -21.291351 21.29132 -21.291351l0 0c5.6468506 0 11.062378 2.2431946 15.055298 6.236084c3.992859 3.99292 6.236084 9.408447 6.236084 15.055267l0 0c0 11.758881 -9.532471 21.29132 -21.291382 21.29132l0 0c-11.75885 0 -21.29132 -9.53244 -21.29132 -21.29132z" fill-rule="evenodd"/><path stroke="#595959" stroke-width="2.0" stroke-linejoin="round" stroke-linecap="butt" d="m660.4866 328.91864l0 0c0 -11.758881 9.532471 -21.291351 21.29132 -21.291351l0 0c5.6468506 0 11.062378 2.2431946 15.055298 6.236084c3.992859 3.99292 6.236084 9.408447 6.236084 15.055267l0 0c0 11.758881 -9.532471 21.29132 -21.291382 21.29132l0 0c-11.75885 0 -21.29132 -9.53244 -21.29132 -21.29132z" fill-rule="evenodd"/><path fill="#b7b7b7" d="m579.9711 421.39224l0 0c0 -5.879425 4.7662354 -10.64566 10.645691 -10.64566l0 0c2.8233643 0 5.531128 1.121582 7.527588 3.118042c1.99646 1.99646 3.118042 4.7042236 3.118042 7.5276184l0 0c0 5.8794556 -4.7662354 10.64566 -10.64563 10.64566l0 0c-5.8794556 0 -10.645691 -4.766205 -10.645691 -10.64566z" fill-rule="evenodd"/><path stroke="#595959" stroke-width="2.0" stroke-linejoin="round" stroke-linecap="butt" d="m579.9711 421.39224l0 0c0 -5.879425 4.7662354 -10.64566 10.645691 -10.64566l0 0c2.8233643 0 5.531128 1.121582 7.527588 3.118042c1.99646 1.99646 3.118042 4.7042236 3.118042 7.5276184l0 0c0 5.8794556 -4.7662354 10.64566 -10.64563 10.64566l0 0c-5.8794556 0 -10.645691 -4.766205 -10.645691 -10.64566z" fill-rule="evenodd"/><path fill="#b7b7b7" d="m601.25195 313.10297l0 0c0 -8.732208 7.0788574 -15.811035 15.811035 -15.811035l0 0c4.1933594 0 8.214905 1.665802 11.180054 4.630951c2.965149 2.9651184 4.6309814 6.986725 4.6309814 11.180084l0 0c0 8.732178 -7.0788574 15.811005 -15.811035 15.811005l0 0c-8.732178 0 -15.811035 -7.078827 -15.811035 -15.811005z" fill-rule="evenodd"/><path stroke="#595959" stroke-width="2.0" stroke-linejoin="round" stroke-linecap="butt" d="m601.25195 313.10297l0 0c0 -8.732208 7.0788574 -15.811035 15.811035 -15.811035l0 0c4.1933594 0 8.214905 1.665802 11.180054 4.630951c2.965149 2.9651184 4.6309814 6.986725 4.6309814 11.180084l0 0c0 8.732178 -7.0788574 15.811005 -15.811035 15.811005l0 0c-8.732178 0 -15.811035 -7.078827 -15.811035 -15.811005z" fill-rule="evenodd"/><path fill="#b7b7b7" d="m660.4853 417.6906l0 0c0 -3.8355713 3.109314 -6.9448853 6.9448853 -6.9448853l0 0c1.841919 0 3.6083374 0.73168945 4.9107666 2.0340881c1.3024292 1.3024292 2.0341187 3.0688782 2.0341187 4.910797l0 0c0 3.8355408 -3.109314 6.9448853 -6.9448853 6.9448853l0 0c-3.8355713 0 -6.9448853 -3.1093445 -6.9448853 -6.9448853z" fill-rule="evenodd"/><path stroke="#595959" stroke-width="2.0" stroke-linejoin="round" stroke-linecap="butt" d="m660.4853 417.6906l0 0c0 -3.8355713 3.109314 -6.9448853 6.9448853 -6.9448853l0 0c1.841919 0 3.6083374 0.73168945 4.9107666 2.0340881c1.3024292 1.3024292 2.0341187 3.0688782 2.0341187 4.910797l0 0c0 3.8355408 -3.109314 6.9448853 -6.9448853 6.9448853l0 0c-3.8355713 0 -6.9448853 -3.1093445 -6.9448853 -6.9448853z" fill-rule="evenodd"/><path fill="#b7b7b7" d="m726.0079 343.30713l0 0c0 -5.8794556 4.7662354 -10.64566 10.645691 -10.64566l0 0c2.8233643 0 5.531128 1.121582 7.527588 3.118042c1.99646 1.9964294 3.118042 4.7042236 3.118042 7.5276184l0 0c0 5.879425 -4.7662354 10.64566 -10.64563 10.64566l0 0c-5.8794556 0 -10.645691 -4.7662354 -10.645691 -10.64566z" fill-rule="evenodd"/><path stroke="#595959" stroke-width="2.0" stroke-linejoin="round" stroke-linecap="butt" d="m726.0079 343.30713l0 0c0 -5.8794556 4.7662354 -10.64566 10.645691 -10.64566l0 0c2.8233643 0 5.531128 1.121582 7.527588 3.118042c1.99646 1.9964294 3.118042 4.7042236 3.118042 7.5276184l0 0c0 5.879425 -4.7662354 10.64566 -10.64563 10.64566l0 0c-5.8794556 0 -10.645691 -4.7662354 -10.645691 -10.64566z" fill-rule="evenodd"/><path fill="#b7b7b7" d="m659.4667 380.47247l0 0c0 -5.879425 4.7662354 -10.64566 10.645691 -10.64566l0 0c2.8234253 0 5.531189 1.121582 7.527649 3.118042c1.99646 1.99646 3.118042 4.7042236 3.118042 7.5276184l0 0c0 5.8794556 -4.7662354 10.64566 -10.645691 10.64566l0 0c-5.8794556 0 -10.645691 -4.766205 -10.645691 -10.64566z" fill-rule="evenodd"/><path stroke="#595959" stroke-width="2.0" stroke-linejoin="round" stroke-linecap="butt" d="m659.4667 380.47247l0 0c0 -5.879425 4.7662354 -10.64566 10.645691 -10.64566l0 0c2.8234253 0 5.531189 1.121582 7.527649 3.118042c1.99646 1.99646 3.118042 4.7042236 3.118042 7.5276184l0 0c0 5.8794556 -4.7662354 10.64566 -10.645691 10.64566l0 0c-5.8794556 0 -10.645691 -4.766205 -10.645691 -10.64566z" fill-rule="evenodd"/><path fill="#b7b7b7" d="m752.70026 313.1076l0 0c0 -8.732178 7.0788574 -15.811005 15.811035 -15.811005l0 0c4.1933594 0 8.214966 1.665802 11.180054 4.6309204c2.965149 2.965149 4.6309814 6.9867554 4.6309814 11.180084l0 0c0 8.732208 -7.0788574 15.811035 -15.811035 15.811035l0 0c-8.732178 0 -15.811035 -7.078827 -15.811035 -15.811035z" fill-rule="evenodd"/><path stroke="#595959" stroke-width="2.0" stroke-linejoin="round" stroke-linecap="butt" d="m752.70026 313.1076l0 0c0 -8.732178 7.0788574 -15.811005 15.811035 -15.811005l0 0c4.1933594 0 8.214966 1.665802 11.180054 4.6309204c2.965149 2.965149 4.6309814 6.9867554 4.6309814 11.180084l0 0c0 8.732208 -7.0788574 15.811035 -15.811035 15.811035l0 0c-8.732178 0 -15.811035 -7.078827 -15.811035 -15.811035z" fill-rule="evenodd"/><path fill="#b7b7b7" d="m688.0657 391.7755l0 0c0 -5.8794556 4.7662354 -10.64566 10.645691 -10.64566l0 0c2.8233643 0 5.531128 1.121582 7.527588 3.118042c1.99646 1.9964294 3.118042 4.7042236 3.118042 7.5276184l0 0c0 5.8794556 -4.7662354 10.64566 -10.64563 10.64566l0 0c-5.8794556 0 -10.645691 -4.766205 -10.645691 -10.64566z" fill-rule="evenodd"/><path stroke="#595959" stroke-width="2.0" stroke-linejoin="round" stroke-linecap="butt" d="m688.0657 391.7755l0 0c0 -5.8794556 4.7662354 -10.64566 10.645691 -10.64566l0 0c2.8233643 0 5.531128 1.121582 7.527588 3.118042c1.99646 1.9964294 3.118042 4.7042236 3.118042 7.5276184l0 0c0 5.8794556 -4.7662354 10.64566 -10.64563 10.64566l0 0c-5.8794556 0 -10.645691 -4.766205 -10.645691 -10.64566z" fill-rule="evenodd"/><path fill="#b7b7b7" d="m747.2993 451.00897l0 0c0 -5.879425 4.7662354 -10.64566 10.64563 -10.64566l0 0c2.8234253 0 5.531189 1.121582 7.527649 3.118042c1.99646 1.99646 3.118042 4.7042236 3.118042 7.5276184l0 0c0 5.8794556 -4.7662354 10.64566 -10.645691 10.64566l0 0c-5.8793945 0 -10.64563 -4.766205 -10.64563 -10.64566z" fill-rule="evenodd"/><path stroke="#595959" stroke-width="2.0" stroke-linejoin="round" stroke-linecap="butt" d="m747.2993 451.00897l0 0c0 -5.879425 4.7662354 -10.64566 10.64563 -10.64566l0 0c2.8234253 0 5.531189 1.121582 7.527649 3.118042c1.99646 1.99646 3.118042 4.7042236 3.118042 7.5276184l0 0c0 5.8794556 -4.7662354 10.64566 -10.645691 10.64566l0 0c-5.8793945 0 -10.64563 -4.766205 -10.64563 -10.64566z" fill-rule="evenodd"/></g></svg>