<svg version="1.1" viewBox="0.0 0.0 960.0 720.0" fill="none" stroke="none" stroke-linecap="square" stroke-miterlimit="10" xmlns:xlink="http://www.w3.org/1999/xlink" xmlns="http://www.w3.org/2000/svg"><clipPath id="g2ae8cada19_0_19.0"><path d="m0 0l960.0 0l0 720.0l-960.0 0l0 -720.0z" clip-rule="nonzero"/></clipPath><g clip-path="url(#g2ae8cada19_0_19.0)"><path fill="#ffffff" d="m0 0l960.0 0l0 720.0l-960.0 0z" fill-rule="evenodd"/><path fill="#eeeeee" d="m530.58795 245.23885l292.78735 0l0 278.80316l-292.78735 0z" fill-rule="evenodd"/><path stroke="#595959" stroke-width="4.0" stroke-linejoin="round" stroke-linecap="butt" d="m530.58795 245.23885l292.78735 0l0 278.80316l-292.78735 0z" fill-rule="evenodd"/><path fill="#000000" fill-opacity="0.0" d="m558.4147 266.0735l0 237.13385" fill-rule="evenodd"/><path stroke="#595959" stroke-width="4.0" stroke-linejoin="round" stroke-linecap="butt" d="m558.4147 266.0735l0 237.13385" fill-rule="evenodd"/><path fill="#000000" fill-opacity="0.0" d="m558.4147 503.20734l237.13391 0" fill-rule="evenodd"/><path stroke="#595959" stroke-width="4.0" stroke-linejoin="round" stroke-linecap="butt" d="m558.4147 503.20734l237.13391 0" fill-rule="evenodd"/><path fill="#b7b7b7" d="m601.2509 372.79865l0 0c0 -5.879425 4.7662354 -10.64566 10.645691 -10.64566l0 0c2.8233643 0 5.531189 1.121582 7.527588 3.118042c1.99646 1.99646 3.118042 4.7042236 3.118042 7.5276184l0 0c0 5.8794556 -4.7661743 10.64566 -10.64563 10.64566l0 0c-5.8794556 0 -10.645691 -4.766205 -10.645691 -10.64566z" fill-rule="evenodd"/><path stroke="#595959" stroke-width="2.0" stroke-linejoin="round" stroke-linecap="butt" d="m601.2509 372.79865l0 0c0 -5.879425 4.7662354 -10.64566 10.645691 -10.64566l0 0c2.8233643 0 5.531189 1.121582 7.527588 3.118042c1.99646 1.99646 3.118042 4.7042236 3.118042 7.5276184l0 0c0 5.8794556 -4.7661743 10.64566 -10.64563 10.64566l0 0c-5.8794556 0 -10.645691 -4.766205 -10.645691 -10.64566z" fill-rule="evenodd"/><path fill="#b7b7b7" d="m660.48456 318.27298l0 0c0 -5.8794556 4.7662354 -10.645691 10.64563 -10.645691l0 0c2.8234253 0 5.531189 1.1216125 7.527649 3.118042c1.99646 1.99646 3.118042 4.7042236 3.118042 7.527649l0 0c0 5.879425 -4.7662354 10.64566 -10.645691 10.64566l0 0c-5.8793945 0 -10.64563 -4.7662354 -10.64563 -10.64566z" fill-rule="evenodd"/><path stroke="#595959" stroke-width="2.0" stroke-linejoin="round" stroke-linecap="butt" d="m660.48456 318.27298l0 0c0 -5.8794556 4.7662354 -10.645691 10.64563 -10.645691l0 0c2.8234253 0 5.531189 1.1216125 7.527649 3.118042c1.99646 1.99646 3.118042 4.7042236 3.118042 7.527649l0 0c0 5.879425 -4.7662354 10.64566 -10.645691 10.64566l0 0c-5.8793945 0 -10.64563 -4.7662354 -10.64563 -10.64566z" fill-rule="evenodd"/><path fill="#b7b7b7" d="m579.9711 421.39224l0 0c0 -5.879425 4.7662354 -10.64566 10.645691 -10.64566l0 0c2.8233643 0 5.531128 1.121582 7.527588 3.118042c1.99646 1.99646 3.118042 4.7042236 3.118042 7.5276184l0 0c0 5.8794556 -4.7662354 10.64566 -10.64563 10.64566l0 0c-5.8794556 0 -10.645691 -4.766205 -10.645691 -10.64566z" fill-rule="evenodd"/><path stroke="#595959" stroke-width="2.0" stroke-linejoin="round" stroke-linecap="butt" d="m579.9711 421.39224l0 0c0 -5.879425 4.7662354 -10.64566 10.645691 -10.64566l0 0c2.8233643 0 5.531128 1.121582 7.527588 3.118042c1.99646 1.99646 3.118042 4.7042236 3.118042 7.5276184l0 0c0 5.8794556 -4.7662354 10.64566 -10.64563 10.64566l0 0c-5.8794556 0 -10.645691 -4.766205 -10.645691 -10.64566z" fill-rule="evenodd"/><path fill="#b7b7b7" d="m639.2048 339.5527l0 0c0 -5.8794556 4.7661743 -10.64566 10.64563 -10.64566l0 0c2.8234253 0 5.531189 1.121582 7.527649 3.118042c1.99646 1.9964294 3.118042 4.7042236 3.118042 7.5276184l0 0c0 5.8794556 -4.7662354 10.64566 -10.645691 10.64566l0 0c-5.8794556 0 -10.64563 -4.766205 -10.64563 -10.64566z" fill-rule="evenodd"/><path stroke="#595959" stroke-width="2.0" stroke-linejoin="round" stroke-linecap="butt" d="m639.2048 339.5527l0 0c0 -5.8794556 4.7661743 -10.64566 10.64563 -10.64566l0 0c2.8234253 0 5.531189 1.121582 7.527649 3.118042c1.99646 1.9964294 3.118042 4.7042236 3.118042 7.5276184l0 0c0 5.8794556 -4.7662354 10.64566 -10.645691 10.64566l0 0c-5.8794556 0 -10.64563 -4.766205 -10.64563 -10.64566z" fill-rule="evenodd"/><path fill="#b7b7b7" d="m660.48456 421.39224l0 0c0 -5.879425 4.7662354 -10.64566 10.64563 -10.64566l0 0c2.8234253 0 5.531189 1.121582 7.527649 3.118042c1.99646 1.99646 3.118042 4.7042236 3.118042 7.5276184l0 0c0 5.8794556 -4.7662354 10.64566 -10.645691 10.64566l0 0c-5.8793945 0 -10.64563 -4.766205 -10.64563 -10.64566z" fill-rule="evenodd"/><path stroke="#595959" stroke-width="2.0" stroke-linejoin="round" stroke-linecap="butt" d="m660.48456 421.39224l0 0c0 -5.879425 4.7662354 -10.64566 10.64563 -10.64566l0 0c2.8234253 0 5.531189 1.121582 7.527649 3.118042c1.99646 1.99646 3.118042 4.7042236 3.118042 7.5276184l0 0c0 5.8794556 -4.7662354 10.64566 -10.645691 10.64566l0 0c-5.8793945 0 -10.64563 -4.766205 -10.64563 -10.64566z" fill-rule="evenodd"/><path fill="#b7b7b7" d="m717.6825 372.79865l0 0c0 -5.879425 4.7662354 -10.64566 10.64563 -10.64566l0 0c2.8234253 0 5.531189 1.121582 7.527649 3.118042c1.99646 1.99646 3.118042 4.7042236 3.118042 7.5276184l0 0c0 5.8794556 -4.7662354 10.64566 -10.645691 10.64566l0 0c-5.8793945 0 -10.64563 -4.766205 -10.64563 -10.64566z" fill-rule="evenodd"/><path stroke="#595959" stroke-width="2.0" stroke-linejoin="round" stroke-linecap="butt" d="m717.6825 372.79865l0 0c0 -5.879425 4.7662354 -10.64566 10.64563 -10.64566l0 0c2.8234253 0 5.531189 1.121582 7.527649 3.118042c1.99646 1.99646 3.118042 4.7042236 3.118042 7.5276184l0 0c0 5.8794556 -4.7662354 10.64566 -10.645691 10.64566l0 0c-5.8793945 0 -10.64563 -4.766205 -10.64563 -10.64566z" fill-rule="evenodd"/><path fill="#b7b7b7" d="m659.4667 380.47247l0 0c0 -5.879425 4.7662354 -10.64566 10.645691 -10.64566l0 0c2.8234253 0 5.531189 1.121582 7.527649 3.118042c1.99646 1.99646 3.118042 4.7042236 3.118042 7.5276184l0 0c0 5.8794556 -4.7662354 10.64566 -10.645691 10.64566l0 0c-5.8794556 0 -10.645691 -4.766205 -10.645691 -10.64566z" fill-rule="evenodd"/><path stroke="#595959" stroke-width="2.0" stroke-linejoin="round" stroke-linecap="butt" d="m659.4667 380.47247l0 0c0 -5.879425 4.7662354 -10.64566 10.645691 -10.64566l0 0c2.8234253 0 5.531189 1.121582 7.527649 3.118042c1.99646 1.99646 3.118042 4.7042236 3.118042 7.5276184l0 0c0 5.8794556 -4.7662354 10.64566 -10.645691 10.64566l0 0c-5.8794556 0 -10.645691 -4.766205 -10.645691 -10.64566z" fill-rule="evenodd"/><path fill="#b7b7b7" d="m752.70184 318.27298l0 0c0 -5.8794556 4.7662354 -10.645691 10.64563 -10.645691l0 0c2.8234253 0 5.531189 1.1216125 7.527649 3.118042c1.99646 1.99646 3.118042 4.7042236 3.118042 7.527649l0 0c0 5.879425 -4.7662354 10.64566 -10.645691 10.64566l0 0c-5.8793945 0 -10.64563 -4.7662354 -10.64563 -10.64566z" fill-rule="evenodd"/><path stroke="#595959" stroke-width="2.0" stroke-linejoin="round" stroke-linecap="butt" d="m752.70184 318.27298l0 0c0 -5.8794556 4.7662354 -10.645691 10.64563 -10.645691l0 0c2.8234253 0 5.531189 1.1216125 7.527649 3.118042c1.99646 1.99646 3.118042 4.7042236 3.118042 7.527649l0 0c0 5.879425 -4.7662354 10.64566 -10.645691 10.64566l0 0c-5.8793945 0 -10.64563 -4.7662354 -10.64563 -10.64566z" fill-rule="evenodd"/><path fill="#b7b7b7" d="m688.0657 391.7755l0 0c0 -5.8794556 4.7662354 -10.64566 10.645691 -10.64566l0 0c2.8233643 0 5.531128 1.121582 7.527588 3.118042c1.99646 1.9964294 3.118042 4.7042236 3.118042 7.5276184l0 0c0 5.8794556 -4.7662354 10.64566 -10.64563 10.64566l0 0c-5.8794556 0 -10.645691 -4.766205 -10.645691 -10.64566z" fill-rule="evenodd"/><path stroke="#595959" stroke-width="2.0" stroke-linejoin="round" stroke-linecap="butt" d="m688.0657 391.7755l0 0c0 -5.8794556 4.7662354 -10.64566 10.645691 -10.64566l0 0c2.8233643 0 5.531128 1.121582 7.527588 3.118042c1.99646 1.9964294 3.118042 4.7042236 3.118042 7.5276184l0 0c0 5.8794556 -4.7662354 10.64566 -10.64563 10.64566l0 0c-5.8794556 0 -10.645691 -4.766205 -10.645691 -10.64566z" fill-rule="evenodd"/><path fill="#b7b7b7" d="m717.6825 421.39224l0 0c0 -5.879425 4.7662354 -10.64566 10.64563 -10.64566l0 0c2.8234253 0 5.531189 1.121582 7.527649 3.118042c1.99646 1.99646 3.118042 4.7042236 3.118042 7.5276184l0 0c0 5.8794556 -4.7662354 10.64566 -10.645691 10.64566l0 0c-5.8793945 0 -10.64563 -4.766205 -10.64563 -10.64566z" fill-rule="evenodd"/><path stroke="#595959" stroke-width="2.0" stroke-linejoin="round" stroke-linecap="butt" d="m717.6825 421.39224l0 0c0 -5.879425 4.7662354 -10.64566 10.64563 -10.64566l0 0c2.8234253 0 5.531189 1.121582 7.527649 3.118042c1.99646 1.99646 3.118042 4.7042236 3.118042 7.5276184l0 0c0 5.8794556 -4.7662354 10.64566 -10.645691 10.64566l0 0c-5.8793945 0 -10.64563 -4.766205 -10.64563 -10.64566z" fill-rule="evenodd"/><path fill="#b7b7b7" d="m747.2993 451.00897l0 0c0 -5.879425 4.7662354 -10.64566 10.64563 -10.64566l0 0c2.8234253 0 5.531189 1.121582 7.527649 3.118042c1.99646 1.99646 3.118042 4.7042236 3.118042 7.5276184l0 0c0 5.8794556 -4.7662354 10.64566 -10.645691 10.64566l0 0c-5.8793945 0 -10.64563 -4.766205 -10.64563 -10.64566z" fill-rule="evenodd"/><path stroke="#595959" stroke-width="2.0" stroke-linejoin="round" stroke-linecap="butt" d="m747.2993 451.00897l0 0c0 -5.879425 4.7662354 -10.64566 10.64563 -10.64566l0 0c2.8234253 0 5.531189 1.121582 7.527649 3.118042c1.99646 1.99646 3.118042 4.7042236 3.118042 7.5276184l0 0c0 5.8794556 -4.7662354 10.64566 -10.645691 10.64566l0 0c-5.8793945 0 -10.64563 -4.766205 -10.64563 -10.64566z" fill-rule="evenodd"/></g></svg>