<svg version="1.1" viewBox="0.0 0.0 960.0 720.0" fill="none" stroke="none" stroke-linecap="square" stroke-miterlimit="10" xmlns:xlink="http://www.w3.org/1999/xlink" xmlns="http://www.w3.org/2000/svg"><clipPath id="g2ae8a89ea3_0_103.0"><path d="m0 0l960.0 0l0 720.0l-960.0 0l0 -720.0z" clip-rule="nonzero"/></clipPath><g clip-path="url(#g2ae8a89ea3_0_103.0)"><path fill="#ffffff" d="m0 0l960.0 0l0 720.0l-960.0 0z" fill-rule="evenodd"/><path fill="#000000" fill-opacity="0.0" d="m51.427822 530.57135c20.999996 -25.714355 77.571304 -168.85739 126.0 -154.2861c48.428696 14.57132 116.42914 232.42825 164.57217 241.7139c48.143036 9.285645 93.00043 -166.71432 124.2861 -185.99997c31.285645 -19.285675 24.427795 67.57175 63.427826 70.28607c39.0 2.7143555 129.57214 -26.142609 170.57214 -54.0c41.0 -27.857391 47.142212 -144.57306 75.42786 -113.14435c28.285645 31.42871 68.00043 272.2878 94.28607 301.71652c26.285645 29.42871 52.856506 -104.28693 63.427795 -125.14435" fill-rule="evenodd"/><path stroke="#595959" stroke-width="4.0" stroke-linejoin="round" stroke-linecap="butt" d="m51.427822 530.57135c20.999996 -25.714355 77.571304 -168.85739 126.0 -154.2861c48.428696 14.57132 116.42914 232.42825 164.57217 241.7139c48.143036 9.285645 93.00043 -166.71432 124.2861 -185.99997c31.285645 -19.285675 24.427795 67.57175 63.427826 70.28607c39.0 2.7143555 129.57214 -26.142609 170.57214 -54.0c41.0 -27.857391 47.142212 -144.57306 75.42786 -113.14435c28.285645 31.42871 68.00043 272.2878 94.28607 301.71652c26.285645 29.42871 52.856506 -104.28693 63.427795 -125.14435" fill-rule="evenodd"/><path fill="#000000" fill-opacity="0.0" d="m39.845146 323.23096l905.16534 0" fill-rule="evenodd"/><path stroke="#0097a7" stroke-width="4.0" stroke-linejoin="round" stroke-linecap="butt" d="m39.845146 323.23096l905.16534 0" fill-rule="evenodd"/><path fill="#000000" fill-opacity="0.0" d="m39.845146 647.7139l905.16534 0" fill-rule="evenodd"/><path stroke="#0097a7" stroke-width="4.0" stroke-linejoin="round" stroke-linecap="butt" d="m39.845146 647.7139l905.16534 0" fill-rule="evenodd"/><path fill="#000000" fill-opacity="0.0" d="m167.99738 322.65353l0 325.6378" fill-rule="evenodd"/><path stroke="#0097a7" stroke-width="4.0" stroke-linejoin="round" stroke-linecap="butt" d="m167.99738 322.65353l0 325.6378" fill-rule="evenodd"/><path fill="#000000" fill-opacity="0.0" d="m346.85565 322.0761l0 325.63782" fill-rule="evenodd"/><path stroke="#0097a7" stroke-width="4.0" stroke-linejoin="round" stroke-linecap="butt" d="m346.85565 322.0761l0 325.63782" fill-rule="evenodd"/><path fill="#000000" fill-opacity="0.0" d="m474.2861 323.23096l0 325.63782" fill-rule="evenodd"/><path stroke="#0097a7" stroke-width="4.0" stroke-linejoin="round" stroke-linecap="butt" d="m474.2861 323.23096l0 325.63782" fill-rule="evenodd"/><path fill="#000000" fill-opacity="0.0" d="m763.71655 322.0761l0 325.63782" fill-rule="evenodd"/><path stroke="#0097a7" stroke-width="4.0" stroke-linejoin="round" stroke-linecap="butt" d="m763.71655 322.0761l0 325.63782" fill-rule="evenodd"/><path fill="#000000" fill-opacity="0.0" d="m878.2861 323.23096l0 325.63782" fill-rule="evenodd"/><path stroke="#0097a7" stroke-width="4.0" stroke-linejoin="round" stroke-linecap="butt" d="m878.2861 323.23096l0 325.63782" fill-rule="evenodd"/></g></svg>