<svg version="1.1" viewBox="0.0 0.0 960.0 720.0" fill="none" stroke="none" stroke-linecap="square" stroke-miterlimit="10" xmlns:xlink="http://www.w3.org/1999/xlink" xmlns="http://www.w3.org/2000/svg"><clipPath id="g2ae8a89ea3_0_25.0"><path d="m0 0l960.0 0l0 720.0l-960.0 0l0 -720.0z" clip-rule="nonzero"/></clipPath><g clip-path="url(#g2ae8a89ea3_0_25.0)"><path fill="#ffffff" d="m0 0l960.0 0l0 720.0l-960.0 0z" fill-rule="evenodd"/><path fill="#000000" fill-opacity="0.0" d="m122.57218 537.42786c14.285652 -14.142578 36.999565 -68.56998 85.713905 -84.85562c48.71434 -16.285645 174.85783 -26.143494 206.57219 -12.858276c31.714325 13.285217 -26.571747 82.14133 -16.286102 92.56955c10.285645 10.428284 70.85739 -36.143036 78.0 -30.0c7.1426086 6.1430664 -37.286957 50.71521 -35.14435 66.85828c2.1426086 16.143066 34.713898 33.714355 48.0 30.0c13.286072 -3.7143555 26.716522 -33.571716 31.716522 -52.28607c5.0 -18.714355 -10.573486 -44.57132 -1.7165527 -60.00003c8.856995 -15.42868 43.14392 -43.71521 54.858276 -32.572174c11.714355 11.143066 17.570862 72.716125 15.427856 99.43048c-2.1430664 26.714294 -32.714783 45.998657 -28.286133 60.85559c4.428711 14.856995 43.28656 31.857422 54.858276 28.286133c11.571777 -3.57135 13.572205 -36.57135 14.572205 -49.71393c1.0 -13.142578 -9.143494 -18.998657 -8.572205 -29.141724c0.5713501 -10.143066 6.2856445 -23.002197 12.0 -31.716553c5.7143555 -8.714355 15.857422 -24.712585 22.286133 -20.56955c6.42865 4.143036 16.429138 35.71347 16.286072 45.427826c-0.1430664 9.714355 -11.572632 9.286987 -17.144348 12.858276c-5.5717773 3.571289 -18.714783 5.7125854 -16.286133 8.569519c2.428711 2.8569946 29.429626 4.1434937 30.858276 8.572205c1.4287109 4.428711 -22.000427 15.0 -22.286072 18.0c-0.28564453 3.0 12.572205 4.0 20.572205 0c8.0 -4.0 21.856506 -8.428711 27.427795 -24.0c5.571289 -15.571289 15.428711 -46.14215 6.0 -69.427826c-9.428711 -23.285645 -56.2865 -49.714355 -62.572205 -70.28607c-6.2856445 -20.571747 6.4296265 -50.715668 24.858276 -53.14438c18.42871 -2.4286804 74.856995 20.429138 85.71393 38.572174c10.856934 18.143066 -16.572205 48.286102 -20.572205 70.2861c-4.0 22.0 -15.427795 47.14215 -3.4277954 61.71393c12.0 14.571716 55.28479 33.28784 75.427795 25.716492c20.143066 -7.571289 37.858704 -59.286926 45.43048 -71.14435" fill-rule="evenodd"/><path stroke="#595959" stroke-width="4.0" stroke-linejoin="round" stroke-linecap="butt" d="m122.57218 537.42786c14.285652 -14.142578 36.99955 -68.56995 85.713905 -84.85565c48.71434 -16.285614 174.85783 -26.143433 206.57219 -12.858246c31.714355 13.285217 -26.571747 82.14133 -16.286102 92.56955c10.285645 10.428284 70.85742 -36.143036 78.0 -30.0c7.1426086 6.143036 -37.286957 50.71521 -35.14435 66.85828c2.1425781 16.143005 34.713898 33.714355 48.0 30.0c13.286072 -3.7143555 26.716522 -33.571716 31.716522 -52.28607c5.0 -18.714355 -10.573486 -44.57132 -1.7165527 -60.00003c8.856995 -15.42868 43.14392 -43.71521 54.858276 -32.572174c11.714355 11.143036 17.570862 72.716125 15.427856 99.43042c-2.1430664 26.714355 -32.714783 45.99872 -28.286133 60.85565c4.428711 14.856995 43.28656 31.857422 54.858276 28.286133c11.571716 -3.571289 13.572205 -36.57129 14.572205 -49.71393c1.0 -13.142578 -9.143494 -18.998718 -8.572205 -29.141724c0.5713501 -10.143066 6.2856445 -23.002197 12.0 -31.716553c5.7143555 -8.714294 15.857422 -24.712616 22.286133 -20.56955c6.42865 4.143036 16.429138 35.71347 16.286072 45.427826c-0.1430664 9.714355 -11.572632 9.286987 -17.144348 12.858276c-5.5717163 3.571289 -18.714783 5.7125854 -16.286133 8.569519c2.428711 2.8569946 29.429626 4.1434937 30.858276 8.572205c1.4287109 4.428711 -22.000427 15.0 -22.286072 18.0c-0.28564453 3.0 12.572205 4.0 20.572205 0c8.0 -4.0 21.856506 -8.428711 27.427795 -24.0c5.571289 -15.571289 15.428711 -46.14215 6.0 -69.427826c-9.428711 -23.285645 -56.28656 -49.714325 -62.572205 -70.2861c-6.2855835 -20.571716 6.4296265 -50.715637 24.858276 -53.14435c18.42871 -2.4286804 74.856995 20.429138 85.71393 38.572174c10.856934 18.143036 -16.572205 48.286102 -20.572205 70.2861c-4.0 22.0 -15.427795 47.14215 -3.4277954 61.71393c12.0 14.571716 55.28479 33.28784 75.427795 25.716492c10.071533 -3.7856445 19.536194 -18.60736 27.429504 -33.964905c3.9465942 -7.678711 7.500366 -15.491394 10.5407715 -22.125488c0.38000488 -0.82922363 0.75201416 -1.6401367 1.1157837 -2.4299927l0.1765747 -0.38153076" fill-rule="evenodd"/><path fill="#595959" stroke="#595959" stroke-width="4.0" stroke-linecap="butt" d="m840.6904 525.6703l1.9933472 6.0411987l1.543457 -13.06134l-9.578003 9.013489z" fill-rule="evenodd"/></g></svg>